<svg width="446" height="154" viewBox="0 0 446 154" fill="none" xmlns="http://www.w3.org/2000/svg">
<path d="M218.609 40.75V109H204.594V40.75H218.609ZM239.609 40.75V51.7656H183.922V40.75H239.609ZM236.469 84.1562V83.1719C236.469 79.4531 237 76.0312 238.062 72.9062C239.125 69.75 240.672 67.0156 242.703 64.7031C244.734 62.3906 247.234 60.5938 250.203 59.3125C253.172 58 256.578 57.3438 260.422 57.3438C264.266 57.3438 267.688 58 270.688 59.3125C273.688 60.5938 276.203 62.3906 278.234 64.7031C280.297 67.0156 281.859 69.75 282.922 72.9062C283.984 76.0312 284.516 79.4531 284.516 83.1719V84.1562C284.516 87.8438 283.984 91.2656 282.922 94.4219C281.859 97.5469 280.297 100.281 278.234 102.625C276.203 104.938 273.703 106.734 270.734 108.016C267.766 109.297 264.359 109.938 260.516 109.938C256.672 109.938 253.25 109.297 250.25 108.016C247.281 106.734 244.766 104.938 242.703 102.625C240.672 100.281 239.125 97.5469 238.062 94.4219C237 91.2656 236.469 87.8438 236.469 84.1562ZM249.969 83.1719V84.1562C249.969 86.2812 250.156 88.2656 250.531 90.1094C250.906 91.9531 251.5 93.5781 252.312 94.9844C253.156 96.3594 254.25 97.4375 255.594 98.2188C256.938 99 258.578 99.3906 260.516 99.3906C262.391 99.3906 264 99 265.344 98.2188C266.688 97.4375 267.766 96.3594 268.578 94.9844C269.391 93.5781 269.984 91.9531 270.359 90.1094C270.766 88.2656 270.969 86.2812 270.969 84.1562V83.1719C270.969 81.1094 270.766 79.1719 270.359 77.3594C269.984 75.5156 269.375 73.8906 268.531 72.4844C267.719 71.0469 266.641 69.9219 265.297 69.1094C263.953 68.2969 262.328 67.8906 260.422 67.8906C258.516 67.8906 256.891 68.2969 255.547 69.1094C254.234 69.9219 253.156 71.0469 252.312 72.4844C251.5 73.8906 250.906 75.5156 250.531 77.3594C250.156 79.1719 249.969 81.1094 249.969 83.1719ZM322.766 97.9375V37H336.359V109H324.125L322.766 97.9375ZM290.703 84.25V83.2656C290.703 79.3906 291.141 75.875 292.016 72.7188C292.891 69.5312 294.172 66.7969 295.859 64.5156C297.547 62.2344 299.625 60.4688 302.094 59.2188C304.562 57.9688 307.375 57.3438 310.531 57.3438C313.5 57.3438 316.094 57.9688 318.312 59.2188C320.562 60.4688 322.469 62.25 324.031 64.5625C325.625 66.8438 326.906 69.5469 327.875 72.6719C328.844 75.7656 329.547 79.1562 329.984 82.8438V85C329.547 88.5312 328.844 91.8125 327.875 94.8438C326.906 97.875 325.625 100.531 324.031 102.812C322.469 105.062 320.562 106.812 318.312 108.062C316.062 109.312 313.438 109.938 310.438 109.938C307.281 109.938 304.469 109.297 302 108.016C299.562 106.734 297.5 104.938 295.812 102.625C294.156 100.312 292.891 97.5938 292.016 94.4688C291.141 91.3438 290.703 87.9375 290.703 84.25ZM304.203 83.2656V84.25C304.203 86.3438 304.359 88.2969 304.672 90.1094C305.016 91.9219 305.562 93.5312 306.312 94.9375C307.094 96.3125 308.094 97.3906 309.312 98.1719C310.562 98.9219 312.078 99.2969 313.859 99.2969C316.172 99.2969 318.078 98.7812 319.578 97.75C321.078 96.6875 322.219 95.2344 323 93.3906C323.812 91.5469 324.281 89.4219 324.406 87.0156V80.875C324.312 78.9062 324.031 77.1406 323.562 75.5781C323.125 73.9844 322.469 72.625 321.594 71.5C320.75 70.375 319.688 69.5 318.406 68.875C317.156 68.25 315.672 67.9375 313.953 67.9375C312.203 67.9375 310.703 68.3438 309.453 69.1562C308.203 69.9375 307.188 71.0156 306.406 72.3906C305.656 73.7656 305.094 75.3906 304.719 77.2656C304.375 79.1094 304.203 81.1094 304.203 83.2656ZM344.75 84.1562V83.1719C344.75 79.4531 345.281 76.0312 346.344 72.9062C347.406 69.75 348.953 67.0156 350.984 64.7031C353.016 62.3906 355.516 60.5938 358.484 59.3125C361.453 58 364.859 57.3438 368.703 57.3438C372.547 57.3438 375.969 58 378.969 59.3125C381.969 60.5938 384.484 62.3906 386.516 64.7031C388.578 67.0156 390.141 69.75 391.203 72.9062C392.266 76.0312 392.797 79.4531 392.797 83.1719V84.1562C392.797 87.8438 392.266 91.2656 391.203 94.4219C390.141 97.5469 388.578 100.281 386.516 102.625C384.484 104.938 381.984 106.734 379.016 108.016C376.047 109.297 372.641 109.938 368.797 109.938C364.953 109.938 361.531 109.297 358.531 108.016C355.562 106.734 353.047 104.938 350.984 102.625C348.953 100.281 347.406 97.5469 346.344 94.4219C345.281 91.2656 344.75 87.8438 344.75 84.1562ZM358.25 83.1719V84.1562C358.25 86.2812 358.438 88.2656 358.812 90.1094C359.188 91.9531 359.781 93.5781 360.594 94.9844C361.438 96.3594 362.531 97.4375 363.875 98.2188C365.219 99 366.859 99.3906 368.797 99.3906C370.672 99.3906 372.281 99 373.625 98.2188C374.969 97.4375 376.047 96.3594 376.859 94.9844C377.672 93.5781 378.266 91.9531 378.641 90.1094C379.047 88.2656 379.25 86.2812 379.25 84.1562V83.1719C379.25 81.1094 379.047 79.1719 378.641 77.3594C378.266 75.5156 377.656 73.8906 376.812 72.4844C376 71.0469 374.922 69.9219 373.578 69.1094C372.234 68.2969 370.609 67.8906 368.703 67.8906C366.797 67.8906 365.172 68.2969 363.828 69.1094C362.516 69.9219 361.438 71.0469 360.594 72.4844C359.781 73.8906 359.188 75.5156 358.812 77.3594C358.438 79.1719 358.25 81.1094 358.25 83.1719ZM428.516 94.9844C428.516 94.0156 428.234 93.1406 427.672 92.3594C427.109 91.5781 426.062 90.8594 424.531 90.2031C423.031 89.5156 420.859 88.8906 418.016 88.3281C415.453 87.7656 413.062 87.0625 410.844 86.2188C408.656 85.3438 406.75 84.2969 405.125 83.0781C403.531 81.8594 402.281 80.4219 401.375 78.7656C400.469 77.0781 400.016 75.1562 400.016 73C400.016 70.875 400.469 68.875 401.375 67C402.312 65.125 403.641 63.4688 405.359 62.0312C407.109 60.5625 409.234 59.4219 411.734 58.6094C414.266 57.7656 417.109 57.3438 420.266 57.3438C424.672 57.3438 428.453 58.0469 431.609 59.4531C434.797 60.8594 437.234 62.7969 438.922 65.2656C440.641 67.7031 441.5 70.4844 441.5 73.6094H428C428 72.2969 427.719 71.125 427.156 70.0938C426.625 69.0312 425.781 68.2031 424.625 67.6094C423.5 66.9844 422.031 66.6719 420.219 66.6719C418.719 66.6719 417.422 66.9375 416.328 67.4688C415.234 67.9688 414.391 68.6562 413.797 69.5312C413.234 70.375 412.953 71.3125 412.953 72.3438C412.953 73.125 413.109 73.8281 413.422 74.4531C413.766 75.0469 414.312 75.5938 415.062 76.0938C415.812 76.5938 416.781 77.0625 417.969 77.5C419.188 77.9062 420.688 78.2812 422.469 78.625C426.125 79.375 429.391 80.3594 432.266 81.5781C435.141 82.7656 437.422 84.3906 439.109 86.4531C440.797 88.4844 441.641 91.1562 441.641 94.4688C441.641 96.7188 441.141 98.7812 440.141 100.656C439.141 102.531 437.703 104.172 435.828 105.578C433.953 106.953 431.703 108.031 429.078 108.812C426.484 109.562 423.562 109.938 420.312 109.938C415.594 109.938 411.594 109.094 408.312 107.406C405.062 105.719 402.594 103.578 400.906 100.984C399.25 98.3594 398.422 95.6719 398.422 92.9219H411.219C411.281 94.7656 411.75 96.25 412.625 97.375C413.531 98.5 414.672 99.3125 416.047 99.8125C417.453 100.312 418.969 100.562 420.594 100.562C422.344 100.562 423.797 100.328 424.953 99.8594C426.109 99.3594 426.984 98.7031 427.578 97.8906C428.203 97.0469 428.516 96.0781 428.516 94.9844Z" fill="#7A8DFD"/>
<g clip-path="url(#clip0_29_577)">
<path d="M152.094 20.2269C135.438 7.60493 109.807 0.069458 83.5296 0.069458C51.0272 0.069458 24.5425 11.4173 10.8669 31.2033C4.44404 40.496 0.891512 51.4997 0.308297 63.9094C-0.211152 74.9592 1.64437 87.1787 5.82523 100.326C20.0934 57.5572 59.9388 24.0625 105.875 24.0625C105.875 24.0625 62.8894 35.3767 35.8645 70.4117C35.8477 70.4324 35.4895 70.8764 34.8699 71.7198C29.4438 78.9803 24.7128 87.2344 21.1726 96.5835C15.1765 110.845 9.62499 130.414 9.62499 154H28.875C28.875 154 25.9529 135.619 31.0346 114.479C39.4399 115.615 46.9547 116.179 53.7213 116.179C71.419 116.179 84.0055 112.35 93.3324 104.129C101.689 96.7634 106.296 86.8665 111.172 76.3888C118.62 60.386 127.062 42.2486 151.575 28.2409C152.979 27.439 153.886 25.9863 153.99 24.3735C154.094 22.7607 153.382 21.2032 152.094 20.2269Z" fill="#7A8DFD"/>
</g>
<defs>
<clipPath id="clip0_29_577">
<rect width="154" height="154" fill="white"/>
</clipPath>
</defs>
</svg>
